<svg width="59" height="59" viewBox="0 0 59 59" fill="none" xmlns="http://www.w3.org/2000/svg">
<path d="M59 29.6787C59 13.3863 45.7924 0.178711 29.5 0.178711C13.2076 0.178711 0 13.3863 0 29.6787C0 44.403 10.7878 56.6073 24.8906 58.8203V38.2061H17.4004V29.6787H24.8906V23.1795C24.8906 15.7861 29.2948 11.7021 36.0332 11.7021C39.2608 11.7021 42.6367 12.2783 42.6367 12.2783V19.5381H38.9168C35.2523 19.5381 34.1094 21.812 34.1094 24.1449V29.6787H42.291L40.9831 38.2061H34.1094V58.8203C48.2123 56.6073 59 44.403 59 29.6787Z" fill="url(#paint0_linear_111_604)"/>
<defs>
<linearGradient id="paint0_linear_111_604" x1="0.179189" y1="0.178711" x2="58.8208" y2="58.8203" gradientUnits="userSpaceOnUse">
<stop stop-color="#E35500"/>
<stop offset="1" stop-color="#FF9601"/>
</linearGradient>
</defs>
</svg>