<svg width="59" height="59" viewBox="0 0 59 59" fill="none" xmlns="http://www.w3.org/2000/svg">
<g clip-path="url(#clip0_111_605)">
<path fill-rule="evenodd" clip-rule="evenodd" d="M29.5 0C45.7815 0 59 13.2185 59 29.5C59 45.7815 45.7815 59 29.5 59C13.2185 59 0 45.7815 0 29.5C0 13.2185 13.2185 0 29.5 0ZM29.5 11.0625C24.4927 11.0625 23.8648 11.0837 21.8982 11.1735C19.9358 11.263 18.5955 11.5747 17.4226 12.0305C16.2102 12.5017 15.182 13.1321 14.157 14.1571C13.132 15.1821 12.5015 16.2104 12.0304 17.4227C11.5746 18.5955 11.263 19.9358 11.1734 21.8982C11.0837 23.8648 11.0625 24.4927 11.0625 29.5C11.0625 34.5073 11.0837 35.1352 11.1734 37.1018C11.263 39.0642 11.5746 40.4045 12.0304 41.5773C12.5015 42.7896 13.132 43.8179 14.157 44.843C15.182 45.868 16.2102 46.4985 17.4226 46.9696C18.5955 47.4253 19.9358 47.737 21.8982 47.8265C23.8648 47.9163 24.4927 47.9375 29.5 47.9375C34.5073 47.9375 35.1352 47.9163 37.1018 47.8265C39.0642 47.737 40.4045 47.4253 41.5773 46.9696C42.7896 46.4985 43.8179 45.868 44.843 44.843C45.868 43.8179 46.4985 42.7896 46.9696 41.5773C47.4253 40.4045 47.737 39.0642 47.8265 37.1018C47.9163 35.1352 47.9375 34.5073 47.9375 29.5C47.9375 24.4927 47.9163 23.8648 47.8265 21.8982C47.737 19.9358 47.4253 18.5955 46.9696 17.4227C46.4985 16.2104 45.868 15.1821 44.843 14.1571C43.8179 13.1321 42.7896 12.5017 41.5773 12.0305C40.4045 11.5747 39.0642 11.263 37.1018 11.1735C35.1352 11.0837 34.5073 11.0625 29.5 11.0625ZM29.5 14.3846C34.423 14.3846 35.0061 14.4034 36.9504 14.4921C38.748 14.5742 39.7242 14.8745 40.3739 15.1269C41.2345 15.4613 41.8487 15.861 42.4938 16.5062C43.1391 17.1513 43.5387 17.7656 43.8731 18.6261C44.1255 19.2758 44.426 20.252 44.5079 22.0496C44.5966 23.9939 44.6154 24.577 44.6154 29.5C44.6154 34.423 44.5966 35.0061 44.5079 36.9504C44.426 38.748 44.1255 39.7242 43.8731 40.3739C43.5387 41.2345 43.1391 41.8487 42.4938 42.4938C41.8487 43.1391 41.2345 43.5387 40.3739 43.8731C39.7242 44.1255 38.748 44.426 36.9504 44.5079C35.0065 44.5966 34.4234 44.6154 29.5 44.6154C24.5766 44.6154 23.9936 44.5966 22.0496 44.5079C20.252 44.426 19.2758 44.1255 18.6261 43.8731C17.7655 43.5387 17.1513 43.1391 16.5061 42.4938C15.8609 41.8487 15.4613 41.2345 15.1269 40.3739C14.8745 39.7242 14.574 38.748 14.492 36.9504C14.4033 35.0061 14.3846 34.423 14.3846 29.5C14.3846 24.577 14.4033 23.9939 14.492 22.0496C14.574 20.252 14.8745 19.2758 15.1269 18.6261C15.4613 17.7656 15.8609 17.1513 16.5061 16.5062C17.1513 15.861 17.7655 15.4613 18.6261 15.1269C19.2758 14.8745 20.252 14.5742 22.0496 14.4921C23.9939 14.4034 24.577 14.3846 29.5 14.3846ZM29.5 20.0321C24.271 20.0321 20.0321 24.271 20.0321 29.5C20.0321 34.729 24.271 38.9679 29.5 38.9679C34.729 38.9679 38.9679 34.729 38.9679 29.5C38.9679 24.271 34.729 20.0321 29.5 20.0321ZM29.5 35.6458C26.1058 35.6458 23.3542 32.8942 23.3542 29.5C23.3542 26.1058 26.1058 23.3542 29.5 23.3542C32.8942 23.3542 35.6458 26.1058 35.6458 29.5C35.6458 32.8942 32.8942 35.6458 29.5 35.6458ZM41.5546 19.6581C41.5546 20.88 40.5639 21.8704 39.3419 21.8704C38.1201 21.8704 37.1296 20.88 37.1296 19.6581C37.1296 18.4361 38.1201 17.4456 39.3419 17.4456C40.5639 17.4456 41.5546 18.4361 41.5546 19.6581Z" fill="url(#paint0_linear_111_605)"/>
</g>
<defs>
<linearGradient id="paint0_linear_111_605" x1="0" y1="0" x2="59" y2="59" gradientUnits="userSpaceOnUse">
<stop stop-color="#E35500"/>
<stop offset="1" stop-color="#FF9601"/>
</linearGradient>
<clipPath id="clip0_111_605">
<rect width="59" height="59" fill="white"/>
</clipPath>
</defs>
</svg>